<svg xmlns="http://www.w3.org/2000/svg" viewBox="0 0 120 120"><title>Wordmouth</title><rect width="120" height="120" rx="27" fill="#6A3FCF"/><path d="M22 34a10 10 0 0 1 10-10h34a10 10 0 0 1 10 10v20a10 10 0 0 1-10 10H44L28 77V64a10 10 0 0 1-6-9z" fill="#fff" fill-opacity=".55"/><path d="M44 52a10 10 0 0 1 10-10h34a10 10 0 0 1 10 10v22a10 10 0 0 1-10 10h-2v13L70 84H54a10 10 0 0 1-10-10z" fill="#fff"/><path d="M58 64c7 7 19 7 26 0" fill="none" stroke="#6A3FCF" stroke-width="6" stroke-linecap="round"/></svg>
